<svg xmlns="http://www.w3.org/2000/svg" viewBox="0 0 512 512" role="img" aria-labelledby="title description">
  <title id="title">ACLogging logo</title>
  <desc id="description">A rounded black app icon with a white document and a blue pencil.</desc>
  <defs>
    <linearGradient id="pencilBlue" x1="272" y1="339" x2="389" y2="222" gradientUnits="userSpaceOnUse">
      <stop offset="0" stop-color="#1f6feb"/>
      <stop offset="1" stop-color="#3f8cff"/>
    </linearGradient>
    <filter id="softShadow" x="-20%" y="-20%" width="140%" height="140%">
      <feDropShadow dx="8" dy="8" stdDeviation="5" flood-color="#000000" flood-opacity="0.22"/>
    </filter>
  </defs>

  <rect x="72" y="72" width="368" height="368" rx="64" fill="#151617"/>

  <rect x="154" y="122" width="146" height="268" rx="26" fill="#f8f8f8"/>
  <rect x="190" y="166" width="58" height="12" rx="6" fill="#151617"/>
  <rect x="190" y="208" width="112" height="12" rx="6" fill="#151617"/>
  <rect x="190" y="250" width="112" height="12" rx="6" fill="#151617"/>
  <rect x="190" y="292" width="112" height="12" rx="6" fill="#151617"/>

  <g filter="url(#softShadow)" transform="rotate(-45 320 303)">
    <path d="M269 240h82c13 0 24 11 24 24v110H245V264c0-13 11-24 24-24z" fill="url(#pencilBlue)"/>
    <path d="M245 374h130l-65 55z" fill="#2b73dd"/>
    <path d="M269 216h82c13 0 24 11 24 24v22H245v-22c0-13 11-24 24-24z" fill="#347fff"/>
    <path d="M245 262h130" fill="none" stroke="#151617" stroke-width="12" stroke-linecap="round"/>
    <path d="M245 374h130l-65 55z" fill="none" stroke="#151617" stroke-width="12" stroke-linejoin="round"/>
    <rect x="245" y="216" width="130" height="158" rx="24" fill="none" stroke="#151617" stroke-width="12"/>
  </g>
</svg>
